<svg width="62" height="56" viewBox="0 0 62 56" fill="none" xmlns="http://www.w3.org/2000/svg">
<path d="M42.5629 14.3255H56.5366V17.7156H42.5629V14.3255ZM28.5611 27.7388C31.65 26.2609 33.268 24.0125 33.268 20.5383C33.268 13.667 28.1548 12 22.2502 12H6V46.4896H22.7054C28.9674 46.4896 34.844 43.4777 34.844 36.4733C34.844 32.1446 32.7987 28.9436 28.5611 27.7388ZM13.5787 17.8837H20.6882C23.4269 17.8837 25.8854 18.6472 25.8854 21.8271C25.8854 24.755 23.9732 25.9317 21.2625 25.9317H13.5787V17.8837ZM21.6688 40.6339H13.5717V31.136H21.8299C25.164 31.136 27.2723 32.5298 27.2723 36.06C27.2723 39.5342 24.7577 40.6339 21.6688 40.6339ZM62 34.365C62 26.9754 57.6783 20.8185 49.8614 20.8185C42.2617 20.8185 37.0924 26.5411 37.0924 34.0428C37.0924 41.8176 41.9885 47.155 49.8614 47.155C55.8221 47.155 59.6816 44.4723 61.5377 38.7497H55.4929C54.8345 40.8861 52.1588 42.0068 50.0785 42.0068C46.058 42.0068 43.9567 39.6533 43.9567 35.6538H61.951C61.972 35.2405 62 34.8063 62 34.365ZM43.9567 31.3251C44.1739 28.04 46.3662 25.9877 49.6443 25.9877C53.0904 25.9877 54.8135 28.012 55.1147 31.3251H43.9567Z" fill="black"/>
</svg>
