<svg width="56" height="56" viewBox="0 0 56 56" fill="none" xmlns="http://www.w3.org/2000/svg">
<path d="M27.9977 17.2129C25.1362 17.2129 22.3919 18.3496 20.3685 20.373C18.3451 22.3964 17.2083 25.1407 17.2083 28.0022C17.2083 30.8637 18.3451 33.608 20.3685 35.6314C22.3919 37.6548 25.1362 38.7916 27.9977 38.7916C30.8592 38.7916 33.6035 37.6548 35.6269 35.6314C37.6503 33.608 38.787 30.8637 38.787 28.0022C38.787 25.1407 37.6503 22.3964 35.6269 20.373C33.6035 18.3496 30.8592 17.2129 27.9977 17.2129V17.2129ZM27.9977 35.0092C26.1387 35.0092 24.3558 34.2707 23.0413 32.9562C21.7268 31.6417 20.9883 29.8589 20.9883 27.9999C20.9883 26.1409 21.7268 24.358 23.0413 23.0435C24.3558 21.729 26.1387 20.9906 27.9977 20.9906C29.8567 20.9906 31.6395 21.729 32.954 23.0435C34.2685 24.358 35.007 26.1409 35.007 27.9999C35.007 29.8589 34.2685 31.6417 32.954 32.9562C31.6395 34.2707 29.8567 35.0092 27.9977 35.0092V35.0092Z" fill="black"/>
<path d="M39.214 19.3317C40.6032 19.3317 41.7293 18.2055 41.7293 16.8164C41.7293 15.4272 40.6032 14.301 39.214 14.301C37.8248 14.301 36.6987 15.4272 36.6987 16.8164C36.6987 18.2055 37.8248 19.3317 39.214 19.3317Z" fill="black"/>
<path d="M47.9104 14.2591C47.3702 12.8641 46.5447 11.5974 45.4868 10.5399C44.4289 9.48233 43.1618 8.65735 41.7667 8.11772C40.1341 7.50488 38.4094 7.17351 36.666 7.13772C34.419 7.03972 33.7074 7.01172 28.0094 7.01172C22.3114 7.01172 21.581 7.01172 19.3527 7.13772C17.6106 7.17168 15.8871 7.50312 14.2567 8.11772C12.8612 8.65672 11.5938 9.48148 10.5358 10.5391C9.47781 11.5967 8.65257 12.8638 8.11303 14.2591C7.50008 15.8915 7.16947 17.6163 7.13537 19.3597C7.03503 21.6044 7.0047 22.3161 7.0047 28.0164C7.0047 33.7144 7.0047 34.4401 7.13537 36.6731C7.17037 38.4184 7.49937 40.1404 8.11303 41.776C8.65408 43.1708 9.48012 44.4374 10.5384 45.4949C11.5966 46.5523 12.8638 47.3774 14.259 47.9174C15.8864 48.5548 17.6106 48.9099 19.3574 48.9674C21.6044 49.0654 22.316 49.0957 28.014 49.0957C33.712 49.0957 34.4424 49.0957 36.6707 48.9674C38.4139 48.9319 40.1386 48.6014 41.7714 47.9897C43.1661 47.4488 44.4328 46.6231 45.4906 45.5653C46.5484 44.5075 47.3741 43.2408 47.915 41.8461C48.5287 40.2127 48.8577 38.4907 48.8927 36.7454C48.993 34.5007 49.0234 33.7891 49.0234 28.0887C49.0234 22.3884 49.0234 21.6651 48.8927 19.4321C48.8655 17.664 48.5332 15.914 47.9104 14.2591V14.2591ZM45.0684 36.5004C45.0533 37.8451 44.8079 39.1773 44.3427 40.439C43.9923 41.3464 43.4558 42.1704 42.7679 42.858C42.0799 43.5455 41.2556 44.0815 40.348 44.4314C39.1002 44.8944 37.7822 45.1399 36.4514 45.157C34.2347 45.2597 33.6094 45.2854 27.9254 45.2854C22.2367 45.2854 21.6557 45.2854 19.397 45.157C18.0669 45.1408 16.7495 44.8953 15.5027 44.4314C14.592 44.0837 13.7644 43.5487 13.0734 42.861C12.3825 42.1732 11.8436 41.3481 11.4917 40.439C11.0331 39.1908 10.7878 37.8743 10.766 36.5447C10.6657 34.3281 10.6424 33.7027 10.6424 28.0187C10.6424 22.3324 10.6424 21.7514 10.766 19.4904C10.7811 18.1464 11.0266 16.815 11.4917 15.5541C12.2034 13.7131 13.6617 12.2641 15.5027 11.5594C16.7501 11.0977 18.0671 10.8523 19.397 10.8337C21.616 10.7334 22.239 10.7054 27.9254 10.7054C33.6117 10.7054 34.195 10.7054 36.4514 10.8337C37.7823 10.8497 39.1005 11.0952 40.348 11.5594C41.2555 11.91 42.0797 12.4465 42.7676 13.1345C43.4556 13.8224 43.9921 14.6466 44.3427 15.5541C44.8013 16.8023 45.0466 18.1188 45.0684 19.4484C45.1687 21.6674 45.1944 22.2904 45.1944 27.9767C45.1944 33.6607 45.1944 34.2721 45.094 36.5027H45.0684V36.5004Z" fill="black"/>
</svg>
