<svg width="56" height="56" viewBox="0 0 56 56" fill="none" xmlns="http://www.w3.org/2000/svg">
<path d="M11.627 16.7929C14.4466 16.7929 16.7323 14.5072 16.7323 11.6876C16.7323 8.86801 14.4466 6.58228 11.627 6.58228C8.8074 6.58228 6.52167 8.86801 6.52167 11.6876C6.52167 14.5072 8.8074 16.7929 11.627 16.7929Z" fill="black"/>
<path d="M21.553 20.6617V48.986H30.3473V34.979C30.3473 31.283 31.0427 27.7037 35.6253 27.7037C40.145 27.7037 40.201 31.9293 40.201 35.2123V48.9883H49V33.4553C49 25.8253 47.3573 19.9617 38.4393 19.9617C34.1577 19.9617 31.2877 22.3113 30.114 24.535H29.995V20.6617H21.553V20.6617ZM7.22168 20.6617H16.03V48.986H7.22168V20.6617Z" fill="black"/>
</svg>
